<mxfile host="app.diagrams.net" agent="Mozilla/5.0 (Windows NT 10.0; Win64; x64) AppleWebKit/537.36 (KHTML, like Gecko) Chrome/130.0.0.0 Safari/537.36 OPR/115.0.0.0" version="26.0.2">
  <diagram name="Page-1" id="lY8ImCbq6xqDSYd5CE9Q">
    <mxGraphModel dx="1236" dy="531" grid="1" gridSize="10" guides="1" tooltips="1" connect="1" arrows="1" fold="1" page="1" pageScale="1" pageWidth="1700" pageHeight="1100" math="0" shadow="0">
      <root>
        <mxCell id="0" />
        <mxCell id="1" parent="0" />
        <mxCell id="h6P8nCgVh_O-HDzW5caL-2" value="&lt;div&gt;Pull database image from DockerHub and run it&lt;/div&gt;" style="ellipse;whiteSpace=wrap;html=1;aspect=fixed;" parent="1" vertex="1">
          <mxGeometry x="500" y="156" width="100" height="100" as="geometry" />
        </mxCell>
        <mxCell id="h6P8nCgVh_O-HDzW5caL-3" value="End-to-end&lt;div&gt;cypruss tests&lt;/div&gt;" style="rounded=1;whiteSpace=wrap;html=1;" parent="1" vertex="1">
          <mxGeometry x="360" y="176" width="120" height="60" as="geometry" />
        </mxCell>
        <mxCell id="h6P8nCgVh_O-HDzW5caL-12" value="" style="endArrow=none;html=1;rounded=0;exitX=1;exitY=0.5;exitDx=0;exitDy=0;entryX=0;entryY=0.5;entryDx=0;entryDy=0;" parent="1" source="h6P8nCgVh_O-HDzW5caL-3" target="h6P8nCgVh_O-HDzW5caL-2" edge="1">
          <mxGeometry width="50" height="50" relative="1" as="geometry">
            <mxPoint x="683" y="194.5" as="sourcePoint" />
            <mxPoint x="603" y="59.5" as="targetPoint" />
          </mxGeometry>
        </mxCell>
        <mxCell id="h6P8nCgVh_O-HDzW5caL-15" value="&lt;font style=&quot;font-size: 24px;&quot;&gt;✅ or ❌&lt;/font&gt;" style="ellipse;whiteSpace=wrap;html=1;aspect=fixed;" parent="1" vertex="1">
          <mxGeometry x="1080" y="256" width="110" height="110" as="geometry" />
        </mxCell>
        <mxCell id="h6P8nCgVh_O-HDzW5caL-16" value="" style="image;points=[];aspect=fixed;html=1;align=center;shadow=0;dashed=0;image=img/lib/allied_telesis/computer_and_terminals/Personal_Computer.svg;" parent="1" vertex="1">
          <mxGeometry x="60" y="269.09999999999997" width="60.36" height="81.8" as="geometry" />
        </mxCell>
        <mxCell id="h6P8nCgVh_O-HDzW5caL-17" value="GitHub Server" style="image;points=[];aspect=fixed;html=1;align=center;shadow=0;dashed=0;image=img/lib/allied_telesis/computer_and_terminals/Server_Desktop.svg;" parent="1" vertex="1">
          <mxGeometry x="220" y="266.5" width="68.63" height="87" as="geometry" />
        </mxCell>
        <mxCell id="h6P8nCgVh_O-HDzW5caL-18" style="edgeStyle=orthogonalEdgeStyle;rounded=0;orthogonalLoop=1;jettySize=auto;html=1;entryX=-0.003;entryY=0.5;entryDx=0;entryDy=0;entryPerimeter=0;" parent="1" source="h6P8nCgVh_O-HDzW5caL-16" target="h6P8nCgVh_O-HDzW5caL-17" edge="1">
          <mxGeometry relative="1" as="geometry" />
        </mxCell>
        <mxCell id="h6P8nCgVh_O-HDzW5caL-19" value="" style="endArrow=none;html=1;rounded=0;exitX=1.035;exitY=0.502;exitDx=0;exitDy=0;exitPerimeter=0;edgeStyle=orthogonalEdgeStyle;entryX=0;entryY=0.5;entryDx=0;entryDy=0;" parent="1" source="h6P8nCgVh_O-HDzW5caL-17" target="h6P8nCgVh_O-HDzW5caL-3" edge="1">
          <mxGeometry width="50" height="50" relative="1" as="geometry">
            <mxPoint x="480" y="380" as="sourcePoint" />
            <mxPoint x="291" y="150" as="targetPoint" />
            <Array as="points">
              <mxPoint x="330" y="310" />
              <mxPoint x="330" y="206" />
            </Array>
          </mxGeometry>
        </mxCell>
        <mxCell id="h6P8nCgVh_O-HDzW5caL-22" value="PC where&amp;nbsp;&lt;div&gt;code is written&lt;/div&gt;" style="text;html=1;align=center;verticalAlign=middle;resizable=0;points=[];autosize=1;strokeColor=none;fillColor=none;" parent="1" vertex="1">
          <mxGeometry x="40.18" y="360" width="100" height="40" as="geometry" />
        </mxCell>
        <mxCell id="eLSRReAdFemIOKwLZGMY-6" value="" style="edgeStyle=orthogonalEdgeStyle;rounded=0;orthogonalLoop=1;jettySize=auto;html=1;entryX=0;entryY=0.5;entryDx=0;entryDy=0;" parent="1" target="eLSRReAdFemIOKwLZGMY-5" edge="1">
          <mxGeometry relative="1" as="geometry">
            <mxPoint x="601" y="206" as="sourcePoint" />
            <mxPoint x="1043" y="296" as="targetPoint" />
          </mxGeometry>
        </mxCell>
        <mxCell id="eLSRReAdFemIOKwLZGMY-5" value="Pull back-end image from DockerHub and run it" style="ellipse;whiteSpace=wrap;html=1;aspect=fixed;" parent="1" vertex="1">
          <mxGeometry x="652" y="156" width="100" height="100" as="geometry" />
        </mxCell>
        <mxCell id="eLSRReAdFemIOKwLZGMY-8" value="" style="edgeStyle=orthogonalEdgeStyle;rounded=0;orthogonalLoop=1;jettySize=auto;html=1;entryX=0;entryY=0.5;entryDx=0;entryDy=0;" parent="1" source="eLSRReAdFemIOKwLZGMY-5" target="eLSRReAdFemIOKwLZGMY-7" edge="1">
          <mxGeometry relative="1" as="geometry">
            <mxPoint x="768" y="206" as="sourcePoint" />
            <mxPoint x="1043" y="296" as="targetPoint" />
          </mxGeometry>
        </mxCell>
        <mxCell id="O64TwlcVbxL7SPVDs7Vs-8" style="edgeStyle=orthogonalEdgeStyle;rounded=0;orthogonalLoop=1;jettySize=auto;html=1;entryX=0;entryY=0.5;entryDx=0;entryDy=0;" edge="1" parent="1" source="eLSRReAdFemIOKwLZGMY-7" target="O64TwlcVbxL7SPVDs7Vs-9">
          <mxGeometry relative="1" as="geometry">
            <Array as="points">
              <mxPoint x="930" y="206" />
              <mxPoint x="930" y="206" />
            </Array>
          </mxGeometry>
        </mxCell>
        <mxCell id="eLSRReAdFemIOKwLZGMY-7" value="Build and run front-end" style="ellipse;whiteSpace=wrap;html=1;aspect=fixed;" parent="1" vertex="1">
          <mxGeometry x="800" y="156" width="100" height="100" as="geometry" />
        </mxCell>
        <mxCell id="O64TwlcVbxL7SPVDs7Vs-1" value="Build" style="ellipse;whiteSpace=wrap;html=1;aspect=fixed;" vertex="1" parent="1">
          <mxGeometry x="540" y="360" width="100" height="100" as="geometry" />
        </mxCell>
        <mxCell id="O64TwlcVbxL7SPVDs7Vs-2" value="Docker Image CI" style="rounded=1;whiteSpace=wrap;html=1;" vertex="1" parent="1">
          <mxGeometry x="360" y="380" width="120" height="60" as="geometry" />
        </mxCell>
        <mxCell id="O64TwlcVbxL7SPVDs7Vs-3" value="" style="endArrow=none;html=1;rounded=0;exitX=1;exitY=0.5;exitDx=0;exitDy=0;entryX=0;entryY=0.5;entryDx=0;entryDy=0;" edge="1" parent="1" source="O64TwlcVbxL7SPVDs7Vs-2" target="O64TwlcVbxL7SPVDs7Vs-1">
          <mxGeometry width="50" height="50" relative="1" as="geometry">
            <mxPoint x="683" y="398.5" as="sourcePoint" />
            <mxPoint x="603" y="263.5" as="targetPoint" />
          </mxGeometry>
        </mxCell>
        <mxCell id="O64TwlcVbxL7SPVDs7Vs-4" value="" style="edgeStyle=orthogonalEdgeStyle;rounded=0;orthogonalLoop=1;jettySize=auto;html=1;entryX=0;entryY=0.5;entryDx=0;entryDy=0;" edge="1" parent="1" target="O64TwlcVbxL7SPVDs7Vs-5">
          <mxGeometry relative="1" as="geometry">
            <mxPoint x="641" y="410" as="sourcePoint" />
            <mxPoint x="1083" y="500" as="targetPoint" />
          </mxGeometry>
        </mxCell>
        <mxCell id="O64TwlcVbxL7SPVDs7Vs-5" value="Build Docker&lt;div&gt;Image&lt;/div&gt;" style="ellipse;whiteSpace=wrap;html=1;aspect=fixed;" vertex="1" parent="1">
          <mxGeometry x="712" y="360" width="100" height="100" as="geometry" />
        </mxCell>
        <mxCell id="O64TwlcVbxL7SPVDs7Vs-6" value="" style="edgeStyle=orthogonalEdgeStyle;rounded=0;orthogonalLoop=1;jettySize=auto;html=1;entryX=0;entryY=0.5;entryDx=0;entryDy=0;" edge="1" parent="1" source="O64TwlcVbxL7SPVDs7Vs-5" target="O64TwlcVbxL7SPVDs7Vs-7">
          <mxGeometry relative="1" as="geometry">
            <mxPoint x="808" y="410" as="sourcePoint" />
            <mxPoint x="1083" y="500" as="targetPoint" />
          </mxGeometry>
        </mxCell>
        <mxCell id="O64TwlcVbxL7SPVDs7Vs-11" style="edgeStyle=orthogonalEdgeStyle;rounded=0;orthogonalLoop=1;jettySize=auto;html=1;entryX=0;entryY=0.5;entryDx=0;entryDy=0;" edge="1" parent="1" source="O64TwlcVbxL7SPVDs7Vs-7" target="h6P8nCgVh_O-HDzW5caL-15">
          <mxGeometry relative="1" as="geometry">
            <Array as="points">
              <mxPoint x="1040" y="410" />
              <mxPoint x="1040" y="311" />
            </Array>
          </mxGeometry>
        </mxCell>
        <mxCell id="O64TwlcVbxL7SPVDs7Vs-7" value="Push image to Docker Hub" style="ellipse;whiteSpace=wrap;html=1;aspect=fixed;" vertex="1" parent="1">
          <mxGeometry x="888" y="360" width="100" height="100" as="geometry" />
        </mxCell>
        <mxCell id="O64TwlcVbxL7SPVDs7Vs-10" style="edgeStyle=orthogonalEdgeStyle;rounded=0;orthogonalLoop=1;jettySize=auto;html=1;entryX=0.5;entryY=0;entryDx=0;entryDy=0;" edge="1" parent="1" source="O64TwlcVbxL7SPVDs7Vs-9" target="O64TwlcVbxL7SPVDs7Vs-2">
          <mxGeometry relative="1" as="geometry">
            <Array as="points">
              <mxPoint x="1000" y="310" />
              <mxPoint x="420" y="310" />
            </Array>
          </mxGeometry>
        </mxCell>
        <mxCell id="O64TwlcVbxL7SPVDs7Vs-9" value="Cypruss tests" style="ellipse;whiteSpace=wrap;html=1;aspect=fixed;" vertex="1" parent="1">
          <mxGeometry x="950" y="156" width="100" height="100" as="geometry" />
        </mxCell>
      </root>
    </mxGraphModel>
  </diagram>
</mxfile>
